<svg xmlns="http://www.w3.org/2000/svg" width="27" height="25" fill="none"><path fill="#1D2E5B" d="M20.317 21.875a4.871 4.871 0 0 1-2.616-.757 4.545 4.545 0 0 1-1.734-2.016 4.3 4.3 0 0 1-.268-2.596 4.431 4.431 0 0 1 1.289-2.3 4.782 4.782 0 0 1 2.41-1.23 4.92 4.92 0 0 1 2.72.257c.861.34 1.596.915 2.114 1.654.517.739.793 1.607.793 2.496a4.395 4.395 0 0 1-1.38 3.175 4.83 4.83 0 0 1-3.328 1.317Zm0-7.422c-.607 0-1.2.172-1.706.494-.505.322-.898.78-1.13 1.315a2.805 2.805 0 0 0-.176 1.692c.119.569.411 1.09.84 1.5.43.41.977.69 1.573.802a3.209 3.209 0 0 0 1.774-.166 3.044 3.044 0 0 0 1.378-1.08 2.835 2.835 0 0 0 .518-1.627 2.867 2.867 0 0 0-.9-2.07 3.15 3.15 0 0 0-2.171-.86ZM6.807 21.875a4.87 4.87 0 0 1-2.616-.757 4.545 4.545 0 0 1-1.734-2.016 4.301 4.301 0 0 1-.268-2.596 4.432 4.432 0 0 1 1.289-2.3 4.783 4.783 0 0 1 2.41-1.23 4.92 4.92 0 0 1 2.72.257c.86.34 1.596.915 2.114 1.654.517.739.793 1.607.793 2.496a4.395 4.395 0 0 1-1.38 3.175 4.83 4.83 0 0 1-3.328 1.317Zm0-7.422c-.608 0-1.201.172-1.706.494-.505.322-.899.78-1.131 1.315a2.805 2.805 0 0 0-.175 1.692c.119.569.411 1.09.84 1.5.43.41.977.69 1.573.802a3.209 3.209 0 0 0 1.774-.166 3.044 3.044 0 0 0 1.378-1.08 2.835 2.835 0 0 0 .517-1.627 2.867 2.867 0 0 0-.9-2.07 3.15 3.15 0 0 0-2.17-.86ZM16.837 6.25c.216 0 .43-.04.629-.118.2-.078.38-.194.533-.34.152-.145.272-.319.354-.51.082-.19.123-.394.122-.6a1.478 1.478 0 0 0-.12-.597c-.08-.19-.2-.362-.351-.507a1.621 1.621 0 0 0-.53-.338 1.682 1.682 0 0 0-.627-.115c-.215 0-.428.04-.627.117-.199.078-.38.193-.532.337a1.56 1.56 0 0 0-.357.506 1.502 1.502 0 0 0-.004 1.196c.082.19.202.362.354.508.151.146.331.261.53.34.198.08.411.12.626.121Z" opacity=".15"/><path fill="#1D2E5B" d="M19.27 9.375h-2.239a.212.212 0 0 1-.104-.027.2.2 0 0 1-.076-.075l-1.624-2.84a1.535 1.535 0 0 0-.481-.532 1.66 1.66 0 0 0-1.416-.212 1.602 1.602 0 0 0-.63.366L9.125 9.492c-.3.293-.471.684-.476 1.094 0 .85.645 1.152.947 1.323 1.458.802 2.485 1.388 3.049 1.714.03.018.054.042.072.071.017.03.026.062.026.096v3.375c0 .42.339.78.78.802a.856.856 0 0 0 .603-.215.752.752 0 0 0 .254-.565v-4.199a.751.751 0 0 0-.09-.356.792.792 0 0 0-.25-.278l-1.894-1.3a.199.199 0 0 1-.084-.14.188.188 0 0 1 .055-.153l2.149-2.187a.205.205 0 0 1 .175-.06.21.21 0 0 1 .089.032.2.2 0 0 1 .065.067l1.116 1.923a.8.8 0 0 0 .301.294c.126.07.27.108.416.107h2.866a.851.851 0 0 0 .593-.241.776.776 0 0 0 .225-.577c-.021-.42-.4-.744-.842-.744Z" opacity=".15"/></svg>
