<svg xmlns="http://www.w3.org/2000/svg" fill="none" viewBox="0 0 25 25"><path fill="#1D2E5B" d="M18.945 21.875a4.492 4.492 0 1 1 0-8.984 4.492 4.492 0 0 1 0 8.984Zm0-7.422a2.93 2.93 0 1 0 0 5.858 2.93 2.93 0 0 0 0-5.858ZM6.055 21.875a4.492 4.492 0 1 1 0-8.985 4.492 4.492 0 0 1 0 8.985Zm0-7.422a2.93 2.93 0 1 0 0 5.858 2.93 2.93 0 0 0 0-5.858ZM15.625 6.25a1.557 1.557 0 0 0 1.563-1.567 1.541 1.541 0 0 0-1.553-1.558 1.562 1.562 0 0 0-.01 3.125Z"/><path fill="#1D2E5B" d="M17.947 9.375H15.81a.196.196 0 0 1-.171-.102l-1.55-2.84a1.514 1.514 0 0 0-2.411-.378L8.267 9.492a1.59 1.59 0 0 0-.454 1.094c0 .85.615 1.152.903 1.323a155.61 155.61 0 0 1 2.909 1.714.195.195 0 0 1 .094.167v3.375c0 .42.323.78.743.802a.782.782 0 0 0 .82-.78v-4.199a.781.781 0 0 0-.326-.634l-1.807-1.3a.195.195 0 0 1-.028-.293l2.05-2.187a.195.195 0 0 1 .314.039l1.066 1.923a.781.781 0 0 0 .683.402h2.735a.78.78 0 0 0 .781-.82.797.797 0 0 0-.803-.743Z"/></svg>
