<svg xmlns="http://www.w3.org/2000/svg" width="29" height="29" fill="none"><path fill="#3F4251" d="M24.473 24.026v-3.487c0-.976-.143-1.952-.717-2.929-.575-.976-1.292-1.813-2.297-2.37-1.004-.698-3.157-.837-4.161-.837l-2.296 2.37.86 1.814v4.184l-1.434 1.534-1.435-1.534v-4.184l1.004-1.813-2.44-2.371c-1.147 0-3.3.14-4.304.837-1.005.557-1.579 1.394-2.153 2.37-.574.977-.717 1.814-.717 2.93v3.486s3.73 1.534 10.045 1.534c6.314 0 10.045-1.534 10.045-1.534ZM14.428 3.385c-2.727 0-4.305 2.51-3.875 5.3.43 2.79 1.866 4.742 3.875 4.742s3.444-1.953 3.874-4.742c.43-2.929-1.148-5.3-3.874-5.3Z"/></svg>
