<svg xmlns="http://www.w3.org/2000/svg" fill="none" viewBox="0 0 23 22"><path fill="#1D2E5B" d="M5.751 14.929c0-.434-.187-.805-.561-1.111-.374-.307-.826-.46-1.355-.46-.528 0-.98.153-1.354.46-.374.306-.561.677-.561 1.11 0 .434.187.805.56 1.112.375.306.827.46 1.355.46.53 0 .98-.154 1.355-.46.374-.307.561-.678.561-1.111Zm15.327 0c0-.434-.187-.805-.561-1.111-.374-.307-.826-.46-1.355-.46-.528 0-.98.153-1.354.46-.374.306-.561.677-.561 1.11 0 .434.187.805.56 1.112.375.306.827.46 1.355.46.53 0 .98-.154 1.355-.46.374-.307.561-.678.561-1.111Zm-.688-4.862-1.078-4.714a.791.791 0 0 0-.337-.46 1.053 1.053 0 0 0-.606-.179H4.63c-.23 0-.432.06-.606.178a.791.791 0 0 0-.337.46l-1.078 4.715c-.05.245.02.462.21.65.19.189.434.283.733.283h15.896c.3 0 .544-.094.733-.282.19-.189.26-.405.21-.651Zm-3.383-7.513a.522.522 0 0 0-.21-.418.776.776 0 0 0-.509-.172H6.71c-.2 0-.369.058-.509.172a.522.522 0 0 0-.21.418c0 .163.07.302.21.417.14.115.31.172.51.172h9.579c.2 0 .369-.057.508-.172a.522.522 0 0 0 .21-.417Zm5.987 8.9v7.403h-1.916v1.572c0 .433-.187.804-.561 1.11-.374.307-.826.461-1.355.461-.528 0-.98-.154-1.354-.46-.374-.307-.561-.678-.561-1.111v-1.572H5.75v1.572c0 .433-.187.804-.561 1.11-.374.307-.826.461-1.355.461-.528 0-.98-.154-1.354-.46-.374-.307-.561-.678-.561-1.111v-1.572H.004v-7.403c0-.916.124-1.829.374-2.737L1.92 3.143c.09-.639.576-1.2 1.459-1.682C4.262.978 5.409.614 6.82.368 8.233.123 9.793 0 11.5 0s3.265.123 4.677.368c1.412.246 2.56.61 3.443 1.093s1.37 1.043 1.46 1.682l1.57 5.574c.23.834.345 1.747.345 2.737Z"/></svg>
