<svg xmlns="http://www.w3.org/2000/svg" width="20" height="20" fill="none"><path fill="#1D2E5B" d="M5.688 13.571c0-.394-.153-.73-.46-1.01a1.594 1.594 0 0 0-1.111-.418c-.434 0-.805.14-1.112.418-.306.28-.46.616-.46 1.01 0 .395.154.732.46 1.01.307.28.678.419 1.112.419.433 0 .804-.14 1.11-.418.308-.28.461-.616.461-1.01Zm12.572 0c0-.394-.154-.73-.46-1.01a1.594 1.594 0 0 0-1.112-.418c-.434 0-.804.14-1.11.418-.308.28-.461.616-.461 1.01 0 .395.153.732.46 1.01.307.28.677.419 1.111.419.434 0 .804-.14 1.111-.418.307-.28.46-.616.46-1.01Zm-.565-4.42-.884-4.285a.72.72 0 0 0-.276-.418.804.804 0 0 0-.497-.162H4.768a.804.804 0 0 0-.498.162.72.72 0 0 0-.276.418L3.11 9.152a.66.66 0 0 0 .172.591.776.776 0 0 0 .601.257h13.039a.776.776 0 0 0 .601-.257.66.66 0 0 0 .172-.591Zm-2.775-6.83a.494.494 0 0 0-.171-.379.599.599 0 0 0-.418-.156H6.474a.598.598 0 0 0-.418.156.494.494 0 0 0-.172.38c0 .148.058.275.172.379a.598.598 0 0 0 .418.156h7.857a.599.599 0 0 0 .418-.156.494.494 0 0 0 .171-.38Zm4.911 8.092v6.73H18.26v1.428c0 .395-.154.731-.46 1.01a1.594 1.594 0 0 1-1.112.419c-.434 0-.804-.14-1.11-.419a1.316 1.316 0 0 1-.461-1.01v-1.428H5.688v1.428c0 .395-.153.731-.46 1.01A1.594 1.594 0 0 1 4.117 20c-.434 0-.805-.14-1.112-.419a1.317 1.317 0 0 1-.46-1.01v-1.428H.974v-6.73c0-.833.102-1.663.307-2.489l1.264-5.067c.074-.58.473-1.09 1.197-1.529C4.466.89 5.408.558 6.566.335 7.724.112 9.003 0 10.402 0c1.4 0 2.679.112 3.837.335 1.158.223 2.1.554 2.824.993.724.44 1.123.949 1.197 1.53l1.289 5.066c.188.759.282 1.589.282 2.489Z"/></svg>
