<svg xmlns="http://www.w3.org/2000/svg" fill="none" viewBox="0 0 42 42"><path fill="#CCE5FA" d="M21 0C12.303 0 5.25 7.053 5.25 15.75c0 10.117 7.607 14.54 9.289 16.558C18.577 37.154 18.805 42 21 42c2.195 0 2.423-4.846 6.462-9.692 1.681-2.018 9.288-6.441 9.288-16.558C36.75 7.053 29.697 0 21 0Zm0 26.25c-5.799 0-10.5-4.701-10.5-10.5S15.201 5.25 21 5.25s10.5 4.701 10.5 10.5-4.701 10.5-10.5 10.5Zm0-15.75a5.252 5.252 0 0 0-5.25 5.25A5.252 5.252 0 0 0 21 21a5.252 5.252 0 0 0 5.25-5.25A5.252 5.252 0 0 0 21 10.5Z"/><circle cx="21" cy="15.75" r="1.75" fill="#161C35"/></svg>
