<svg xmlns="http://www.w3.org/2000/svg" width="23" height="24" fill="none"><path fill="#1D2E5B" d="M16.245 6c1.053 0 1.906-.895 1.906-2s-.853-2-1.906-2c-1.052 0-1.905.895-1.905 2s.853 2 1.905 2ZM15.08 10.969c.219.342.533.605.899.754.366.148.767.175 1.148.076l3.16-.829-.461-1.94-3.16.829-1.313-2.067a1.914 1.914 0 0 0-1.212-.854l-3.665-.77a1.823 1.823 0 0 0-1.21.164c-.377.193-.681.51-.868.903l-1.58 3.316 1.705.895 1.58-3.317 1.874.394L7.13 17H2.906v2h4.225a1.9 1.9 0 0 0 1.634-.971l1.827-3.196 4.925 1.034 1.73 5.449 1.807-.633-1.73-5.448a2.017 2.017 0 0 0-.547-.867 1.88 1.88 0 0 0-.887-.463l-2.896-.607 1.689-2.954.397.625Z"/></svg>
